<?xml version="1.0" standalone="no"?>
<!DOCTYPE svg PUBLIC "-//W3C//DTD SVG 20010904//EN"
 "http://www.w3.org/TR/2001/REC-SVG-20010904/DTD/svg10.dtd">
<svg version="1.0" xmlns="http://www.w3.org/2000/svg"
 width="367.000000pt" height="466.000000pt" viewBox="0 0 367.000000 466.000000"
 preserveAspectRatio="xMidYMid meet">
<metadata>
Created by potrace 1.16, written by Peter Selinger 2001-2019
</metadata>
<g transform="translate(0.000000,466.000000) scale(0.100000,-0.100000)"
fill="#000000" stroke="none">
<path d="M1765 4601 c-25 -24 -182 -50 -167 -27 3 5 -5 6 -19 2 -13 -4 -40
-11 -59 -16 -42 -11 -64 -38 -90 -114 -26 -78 -25 -118 4 -213 14 -43 30 -104
37 -135 8 -37 17 -58 26 -58 10 0 12 -6 8 -21 -6 -19 -5 -20 17 -7 16 9 66 13
170 13 143 0 147 -1 157 -22 6 -13 20 -23 31 -23 11 0 20 -4 20 -9 0 -5 16
-19 35 -32 19 -13 35 -30 35 -36 0 -7 11 -20 25 -29 28 -18 40 -47 36 -88 -2
-16 3 -33 11 -38 10 -7 10 -11 1 -15 -17 -6 -17 -38 0 -55 7 -7 22 -26 33 -43
29 -46 47 -65 61 -65 16 0 83 -102 83 -128 0 -27 -39 -35 -103 -23 -27 5 -45
5 -40 1 4 -5 28 -12 53 -17 25 -5 46 -14 46 -21 1 -7 2 -17 3 -23 0 -5 5 -8
10 -5 20 13 33 -29 39 -121 7 -97 20 -135 50 -141 10 -2 12 7 9 32 -4 31 0 39
37 70 91 78 88 76 161 67 7 -1 7 -4 0 -9 -5 -4 -15 -16 -21 -27 -7 -11 -19
-19 -28 -19 -18 2 -22 -31 -6 -41 19 -12 10 -36 -31 -76 -23 -22 -43 -38 -46
-35 -8 7 -63 -46 -63 -61 0 -7 -9 -18 -20 -25 -11 -7 -20 -19 -20 -26 0 -7 -5
-10 -11 -7 -6 4 -13 -2 -16 -14 -3 -12 -13 -21 -25 -21 -14 0 -18 -5 -14 -18
6 -17 -29 -62 -78 -100 -27 -21 -107 -52 -149 -58 -21 -2 -47 -8 -56 -13 -9
-5 -38 -12 -66 -16 -27 -4 -81 -24 -120 -44 -76 -39 -93 -42 -240 -31 -55 4
-104 4 -110 0 -5 -4 -20 -4 -32 1 -21 8 -23 15 -23 81 0 95 -14 144 -42 151
-13 4 -26 1 -30 -6 -5 -8 -8 -8 -8 -1 0 24 -61 -3 -117 -51 -40 -35 -77 -56
-122 -71 -37 -12 -59 -23 -50 -27 7 -3 1 -6 -14 -6 -18 -1 -27 -6 -24 -13 2
-7 15 -12 28 -11 15 1 17 0 6 -3 -9 -3 -15 -9 -13 -13 3 -4 -11 -8 -29 -8 -40
-1 -95 -23 -95 -38 0 -6 6 -17 13 -24 10 -10 8 -12 -8 -9 -11 2 -19 8 -18 14
1 5 -17 10 -40 11 l-42 3 53 -25 c28 -13 52 -26 52 -29 0 -3 -6 -3 -14 0 -8 3
-17 1 -21 -5 -3 -6 -16 -11 -28 -11 -15 0 -18 3 -9 9 10 6 10 10 -3 21 -11 9
-18 10 -28 1 -8 -6 -17 -8 -21 -4 -4 4 -4 -1 0 -10 4 -12 0 -23 -11 -31 -15
-11 -18 -31 -20 -125 -1 -61 2 -114 6 -117 13 -8 11 -104 -2 -104 -7 0 -9 -10
-7 -24 4 -19 1 -24 -12 -21 -15 3 -17 -2 -13 -35 5 -35 3 -41 -20 -51 -28 -13
-42 -46 -26 -65 7 -9 4 -16 -12 -24 -16 -9 -18 -14 -9 -20 9 -5 9 -9 1 -14
-14 -9 -15 -46 -1 -46 6 0 20 9 33 20 47 42 55 47 83 53 16 3 23 4 17 1 -8 -4
1 -18 25 -40 36 -33 32 -41 -15 -28 -13 4 -20 11 -17 16 4 6 1 14 -6 18 -15 9
-60 -11 -60 -27 0 -7 -4 -13 -10 -13 -5 0 -10 -7 -10 -15 0 -8 7 -15 15 -15 9
0 18 -6 21 -14 3 -8 17 -17 31 -21 39 -9 103 -39 103 -47 0 -5 11 -8 24 -8 13
0 26 -7 30 -15 3 -8 1 -15 -3 -15 -5 0 -12 6 -14 13 -4 10 -6 10 -6 0 -1 -7
-12 -13 -25 -13 -14 0 -28 -4 -31 -10 -3 -5 -13 -10 -21 -10 -21 0 -54 -37
-48 -55 7 -18 -16 -21 -33 -4 -8 8 -14 5 -22 -10 -7 -12 -18 -21 -26 -21 -8 0
-15 -5 -15 -10 0 -11 47 -3 65 10 6 5 21 10 35 12 18 2 25 9 26 27 1 13 8 27
15 32 19 12 49 11 49 -2 0 -26 32 -42 86 -40 31 0 54 -3 54 -9 0 -6 -11 -8
-25 -4 -16 4 -25 2 -25 -6 0 -7 -8 -9 -20 -5 -15 5 -20 2 -20 -10 0 -10 5 -15
13 -12 8 3 20 2 27 -3 9 -6 7 -13 -9 -29 -11 -11 -26 -21 -32 -21 -5 0 -7 -5
-4 -10 4 -6 11 -8 16 -5 15 10 49 -5 49 -21 0 -8 -9 -14 -20 -14 -17 0 -16 -4
12 -30 17 -16 27 -30 23 -30 -5 0 0 -7 11 -15 19 -14 18 -14 -3 -15 -13 0 -23
-4 -23 -9 0 -5 -3 -16 -6 -25 -4 -10 2 -17 20 -22 28 -7 36 -24 10 -24 -11 0
-14 -8 -12 -28 2 -15 8 -26 16 -25 21 5 13 -19 -8 -24 -11 -3 -22 -16 -25 -29
-3 -13 -7 -36 -10 -51 l-5 -28 18 22 c27 31 55 24 58 -15 1 -18 -2 -34 -7 -38
-5 -3 -7 -9 -4 -14 7 -11 -50 -30 -88 -30 -17 0 -27 -3 -23 -7 4 -4 22 -6 41
-5 35 3 75 -12 75 -27 0 -4 -19 -12 -42 -17 -33 -7 -43 -15 -51 -38 -11 -32 1
-46 39 -46 12 0 25 -7 28 -16 4 -9 5 -17 4 -18 -2 -1 -12 -6 -23 -12 -14 -8
-29 -8 -49 -1 -21 7 -30 6 -36 -3 -4 -7 -16 -9 -29 -5 -12 3 -21 2 -21 -4 0
-5 -17 -13 -37 -16 -21 -4 -45 -9 -53 -12 -8 -3 -24 -5 -35 -4 -16 2 -17 0 -5
-8 12 -9 12 -11 -3 -17 -9 -3 -17 -10 -17 -14 0 -7 40 -1 151 24 52 12 57 12
72 -7 12 -15 14 -25 6 -39 -9 -17 -8 -19 9 -14 15 5 22 1 27 -15 9 -28 -9 -46
-29 -29 -9 7 -13 16 -10 21 5 9 -9 13 -81 24 l-40 7 22 -21 c12 -12 31 -21 43
-21 35 0 22 -16 -22 -26 -47 -10 -52 -25 -13 -36 14 -3 23 -2 19 3 -9 15 20
10 44 -7 12 -8 22 -21 22 -28 0 -16 -35 -27 -47 -16 -14 14 -133 51 -144 45
-16 -11 -10 -23 19 -34 15 -6 46 -22 70 -36 23 -14 55 -25 69 -25 l27 0 -22
-20 c-24 -23 -27 -35 -12 -45 23 -14 8 -27 -29 -23 -40 3 -48 -15 -10 -25 23
-6 26 -27 3 -27 -22 0 -48 -27 -31 -33 9 -4 9 -6 0 -6 -7 -1 -13 -8 -13 -16 0
-8 -5 -15 -11 -15 -5 0 -7 -4 -4 -10 3 -5 -1 -10 -9 -10 -9 0 -16 -4 -16 -10
0 -5 7 -7 15 -4 21 9 36 -4 27 -24 -5 -9 -18 -36 -30 -60 l-21 -43 25 -9 c14
-6 33 -10 42 -9 14 0 13 2 -3 10 -19 8 -19 9 -1 6 11 -1 19 -6 17 -12 -3 -12
52 -27 97 -27 17 0 32 -4 32 -9 0 -13 -52 -11 -96 5 -22 7 -44 11 -51 9 -7 -2
-21 1 -33 7 -28 15 -161 40 -154 29 3 -5 14 -9 25 -9 18 0 19 -2 6 -15 -11
-10 -25 -13 -48 -8 -22 4 -30 3 -25 -5 6 -10 90 -32 125 -32 10 0 21 9 24 20
3 11 13 20 24 20 15 0 16 -2 3 -10 -12 -8 -10 -10 10 -10 20 0 22 -2 10 -10
-11 -7 -4 -8 21 -5 23 3 41 0 47 -8 8 -9 6 -13 -6 -13 -9 -1 -51 -6 -92 -12
-41 -7 -101 -15 -132 -18 -84 -8 -71 -22 21 -23 44 0 92 -6 108 -12 15 -6 46
-9 68 -8 22 1 55 1 74 0 33 -1 34 -2 15 -16 -18 -14 -18 -14 8 -15 14 0 29 6
31 13 4 9 6 9 6 -1 1 -18 941 -17 941 1 0 9 2 9 8 -1 7 -10 107 -12 470 -10
l461 3 -57 39 c-31 22 -81 55 -109 74 -29 19 -53 39 -53 43 0 15 -39 48 -42
37 -3 -7 -13 -5 -29 6 -14 9 -29 13 -32 9 -14 -13 -6 73 9 97 l15 25 -5 -30
-4 -30 20 25 c21 26 44 21 63 -16 36 -69 140 -192 152 -180 2 1 -2 32 -7 67
-6 35 -12 73 -13 84 -1 11 -9 28 -18 38 -22 24 -66 116 -74 152 -6 27 -5 28 6
10 7 -11 16 -24 21 -30 5 -5 15 -19 24 -30 13 -17 13 -16 -1 12 -9 20 -15 60
-15 110 0 54 -3 73 -10 63 -19 -30 -9 3 24 79 42 95 60 180 53 243 -4 27 -2
46 3 43 9 -6 15 10 26 70 4 21 15 47 24 58 10 10 20 33 23 50 22 135 28 168
38 193 l11 29 30 -60 c20 -40 28 -69 24 -87 -8 -40 11 -190 39 -303 16 -64 25
-129 25 -181 0 -147 34 -361 75 -469 15 -39 28 -95 29 -125 2 -30 10 -70 20
-87 l17 -33 319 0 c276 0 320 2 320 15 0 13 -14 20 -64 27 -31 5 -32 28 -1 28
43 0 65 17 65 50 0 33 -11 38 -34 15 -8 -8 -20 -15 -27 -15 -7 0 -10 -3 -6 -6
9 -9 -19 -34 -37 -34 -10 0 -13 6 -9 16 4 10 -2 17 -18 22 -27 7 -32 5 84 32
26 7 47 15 47 20 0 10 -57 24 -97 22 -37 -1 -36 21 0 33 12 4 24 8 27 10 3 1
20 6 38 10 22 5 32 13 32 26 0 11 -2 19 -4 19 -2 0 -37 -13 -77 -29 -83 -33
-119 -44 -119 -38 0 2 30 17 68 32 116 48 132 57 132 72 0 22 -32 73 -46 73
-7 0 -14 7 -18 15 -4 12 -2 13 12 6 11 -6 22 -5 32 2 13 10 11 15 -11 37 -14
14 -35 27 -45 28 -10 2 -23 7 -29 12 -5 4 -36 13 -68 20 -32 6 -56 14 -53 18
3 3 33 7 67 9 64 3 126 -17 136 -44 10 -25 23 -13 23 23 0 44 -43 112 -80 127
-10 3 -7 6 8 6 19 1 21 3 10 16 -19 23 -31 34 -52 49 -18 13 -18 13 2 18 11 3
32 0 46 -8 15 -7 26 -9 26 -3 0 6 4 8 9 5 4 -3 5 13 0 37 -4 23 -8 45 -9 49 0
3 -13 9 -30 13 -38 8 -43 45 -7 45 32 0 37 8 26 37 -5 13 -11 45 -13 70 -3 25
-10 51 -15 56 -14 14 -14 57 0 57 7 0 9 10 5 27 -3 16 -8 49 -10 75 -2 26 -11
66 -19 90 -21 62 -37 134 -37 168 0 26 -17 78 -30 90 -3 3 -6 23 -6 45 -2 55
-17 127 -60 285 -53 196 -69 263 -94 375 -12 55 -25 114 -30 130 -5 17 -12 53
-16 80 -3 28 -13 62 -22 77 -15 25 -17 26 -43 12 -16 -8 -35 -14 -43 -14 -11
0 -8 -7 9 -26 14 -15 25 -34 25 -43 0 -12 -6 -9 -20 9 -11 14 -20 20 -20 14 0
-5 5 -15 11 -21 13 -13 2 -56 -12 -48 -5 4 -9 1 -9 -6 0 -7 -3 -10 -6 -7 -3 3
0 15 7 27 17 27 3 40 -16 15 -12 -15 -14 -15 -9 -2 7 20 -12 58 -29 57 -9 0
-9 -2 1 -6 23 -9 12 -19 -23 -20 -19 -1 -35 3 -35 8 0 5 4 9 9 9 12 0 5 70 -8
83 -8 8 -11 8 -11 -1 0 -21 -26 -13 -46 13 l-18 24 -24 -22 c-14 -12 -33 -35
-43 -52 -11 -16 -19 -24 -19 -17 0 7 7 24 16 37 13 20 14 25 3 25 -12 0 -12 2
0 9 11 7 9 14 -12 35 -26 26 -44 35 -32 16 8 -12 -3 -50 -14 -50 -14 0 -9 49
5 61 9 7 12 20 8 32 -5 16 -3 19 10 14 10 -4 16 -1 16 8 0 8 6 15 14 15 9 0
14 9 13 20 -1 12 -7 18 -14 16 -17 -7 -75 18 -66 28 5 5 -3 5 -17 1 -14 -4
-26 -12 -28 -16 -2 -5 -15 -9 -28 -9 -26 0 -29 21 -4 32 9 4 -2 7 -25 8 l-40
1 25 15 25 15 -24 -7 c-19 -5 -23 -3 -18 10 7 17 -19 22 -90 17 -32 -2 -45 14
-26 33 4 4 9 19 11 33 2 15 10 42 18 61 8 19 14 42 14 51 0 9 11 32 24 51 38
56 103 182 116 225 16 51 73 192 111 273 24 52 31 82 35 160 4 54 12 119 20
145 7 26 9 45 4 42 -12 -7 -33 32 -25 46 4 5 0 20 -8 32 -14 22 -14 22 24 19
32 -3 38 -1 33 11 -4 12 -11 14 -30 6 -19 -6 -23 -6 -18 3 5 7 2 9 -8 5 -12
-4 -25 13 -53 71 -21 42 -41 79 -44 82 -3 3 -15 22 -25 43 -11 20 -23 37 -28
37 -4 0 -8 6 -8 13 0 16 -39 46 -98 76 -23 12 -42 25 -42 30 0 4 -30 22 -66
40 -74 36 -206 63 -268 56 -32 -4 -37 -3 -21 5 18 9 17 10 -5 5 -14 -2 -47 2
-73 10 -41 12 -50 12 -77 -2 -29 -14 -35 -13 -86 7 -40 17 -66 21 -97 17 -28
-4 -36 -3 -22 3 11 5 14 9 6 9 -8 1 -19 8 -26 18 -12 15 -109 36 -120 24z
m867 -1285 c23 -17 48 -77 48 -114 0 -15 -9 -47 -20 -70 -11 -22 -20 -46 -20
-52 0 -6 -28 -39 -63 -74 -98 -98 -183 -117 -243 -55 -23 24 -25 31 -14 44 7
8 19 15 26 15 8 0 14 7 14 15 0 11 7 14 25 9 21 -5 25 -3 25 16 0 17 5 21 18
18 14 -4 18 2 20 25 4 44 8 45 43 6 19 -22 28 -41 25 -53 -4 -16 0 -15 20 7
17 19 24 36 22 55 -2 15 -6 25 -10 22 -6 -4 -48 64 -48 77 0 2 11 3 25 3 18 0
25 5 25 19 0 10 7 22 15 25 22 8 35 -32 35 -107 0 -84 -23 -121 -87 -141 -29
-9 -39 -15 -25 -15 45 -2 91 26 109 66 10 21 23 41 28 45 7 5 6 14 -2 27 -8
13 -9 22 -3 26 6 4 10 3 9 -2 -4 -23 3 -25 18 -3 9 13 16 41 16 64 -1 72 -73
107 -143 71 -26 -14 -29 -14 -24 0 15 38 101 58 136 31z m-172 -626 c5 0 11 8
13 18 3 11 5 7 6 -10 0 -15 -3 -30 -9 -33 -5 -3 -10 -34 -10 -68 -2 -105 -2
-111 -12 -145 -6 -19 -14 -29 -20 -26 -7 4 -8 2 -4 -5 4 -6 12 -9 17 -6 5 4 6
-8 2 -27 -11 -61 -20 -63 -28 -7 -8 61 -63 185 -100 225 -26 28 -27 46 -1 25
10 -8 16 -9 21 -1 3 6 11 8 16 4 6 -3 9 2 7 12 -2 14 2 18 16 16 29 -5 66 18
67 42 1 17 2 18 6 4 2 -10 8 -18 13 -18z m-764 -863 c-7 -37 -33 -67 -62 -71
-10 -2 -18 -12 -19 -23 -1 -11 -11 -30 -23 -43 -19 -20 -22 -21 -36 -7 -9 9
-16 18 -16 22 0 3 -11 22 -24 43 -25 39 -43 112 -28 112 6 0 12 -7 16 -15 4
-11 13 -14 30 -9 13 3 27 1 30 -5 10 -15 103 -14 113 2 4 6 6 21 4 32 -2 15 0
17 9 8 8 -7 10 -24 6 -46z m-356 -472 c21 -26 80 -147 80 -163 0 -6 11 -12 25
-12 14 0 25 -4 25 -10 0 -5 -11 -10 -25 -10 -18 0 -23 -4 -18 -16 5 -13 7 -13
15 -2 6 8 8 1 6 -22 -3 -33 -5 -35 -36 -32 -19 1 -44 8 -55 14 -12 7 -25 11
-29 10 -5 -1 -8 2 -8 7 0 5 -9 11 -21 14 -12 3 -18 10 -15 15 3 6 -7 18 -22
27 -37 24 -66 55 -51 55 8 0 6 7 -4 18 -18 19 -23 52 -9 52 5 0 14 -11 20 -25
15 -31 32 -32 66 0 31 29 33 45 6 45 -11 0 -20 5 -20 10 0 6 4 10 9 10 5 0 11
9 14 20 6 25 26 22 47 -5z"/>
<path d="M3390 4254 l-25 -27 30 7 c29 7 29 7 11 -13 -19 -21 -42 -29 -31 -11
3 6 -1 10 -10 10 -9 0 -14 -4 -11 -9 9 -14 -26 -23 -37 -9 -6 9 -7 8 -3 -5 3
-10 -3 -26 -14 -37 -23 -23 -26 -46 -7 -53 7 -3 5 -6 -5 -6 -25 -1 -42 34 -23
49 8 7 15 18 15 24 0 6 -16 -6 -35 -27 -19 -21 -39 -36 -44 -33 -5 4 -12 2
-16 -4 -4 -6 -10 -8 -15 -5 -12 8 0 42 22 62 20 18 20 17 14 -4 -9 -29 3 -29
30 0 l22 23 -24 11 c-16 7 -24 8 -24 1 0 -6 -12 -8 -27 -5 -15 3 -36 1 -47 -5
-17 -9 -18 -7 -14 23 l5 33 -24 -29 -25 -28 24 -13 c12 -7 17 -13 11 -14 -21
0 -15 -18 8 -25 16 -6 19 -12 14 -33 -5 -21 -4 -24 8 -13 12 9 16 8 21 -4 7
-18 32 -20 43 -2 4 6 15 18 24 24 13 10 16 10 16 -2 0 -8 -4 -12 -8 -9 -13 8
-22 -17 -9 -29 9 -9 14 -8 23 3 7 8 21 17 31 18 17 3 18 2 7 -12 -11 -14 -11
-16 3 -16 9 0 16 8 17 18 0 10 3 12 6 5 5 -15 43 -18 43 -4 0 5 -7 11 -15 15
-8 3 -15 11 -15 17 0 7 3 9 7 6 3 -4 12 -2 19 4 10 8 11 16 3 31 -14 27 -5 33
47 33 34 0 45 -4 50 -17 3 -10 10 -18 15 -18 13 0 11 14 -3 28 -7 7 -8 12 -4
12 5 0 3 7 -4 15 -7 8 -8 15 -3 15 6 0 15 -10 21 -22 l11 -23 0 23 c1 22 13
27 56 22 11 -1 22 -6 23 -11 2 -5 8 -9 14 -9 6 0 7 7 4 15 -3 8 -9 22 -12 30
-5 13 -2 14 21 5 33 -13 32 -13 39 6 5 13 2 15 -14 11 -11 -3 -22 -1 -25 3 -7
11 -46 9 -62 -3 -9 -6 -13 -5 -14 4 0 8 -4 5 -8 -5 -12 -31 -87 -31 -93 0 -2
12 -9 9 -28 -12z"/>
<path d="M780 4150 c-9 -32 -9 -91 -1 -85 6 3 11 1 11 -4 0 -6 5 -11 10 -11 6
0 10 6 10 13 0 16 38 40 50 32 15 -9 12 -25 -5 -25 -8 0 -15 -5 -15 -11 0 -5
4 -8 9 -5 14 9 41 -4 41 -19 0 -9 8 -11 22 -7 21 5 21 4 -5 -23 -14 -16 -24
-32 -21 -37 9 -14 -13 -9 -26 7 -7 8 -18 15 -24 15 -6 0 3 -11 19 -24 21 -17
34 -21 42 -14 7 5 22 8 34 6 18 -2 23 -10 24 -33 0 -27 18 -48 21 -25 1 6 2
15 3 20 0 6 8 10 16 10 8 0 15 5 15 11 0 5 5 7 10 4 6 -3 10 1 10 10 0 28 43
13 59 -20 l15 -30 6 25 c4 17 8 21 14 12 4 -6 16 -12 27 -12 11 0 18 -4 15 -9
-3 -5 1 -11 8 -14 17 -7 39 16 28 29 -4 4 1 2 11 -5 15 -12 17 -11 17 8 0 11
6 21 13 21 7 1 5 6 -5 14 -10 7 -18 20 -18 28 0 39 -50 50 -75 16 -14 -22 -75
-36 -75 -18 0 12 -33 5 -38 -8 -2 -7 -18 -12 -35 -12 -24 0 -28 3 -19 12 18
18 15 35 -8 41 -11 3 -20 10 -20 17 0 7 8 9 23 4 12 -3 19 -3 15 1 -4 4 2 16
14 26 11 11 16 19 10 19 -6 0 -14 -4 -17 -10 -3 -5 -16 -10 -27 -10 -20 0 -21
1 -3 20 18 19 17 20 -6 22 -13 0 -31 1 -39 0 -8 0 -18 5 -22 11 -6 9 -10 8
-17 -3 -8 -12 -13 -11 -31 5 -17 16 -25 17 -40 7 -14 -9 -20 -8 -23 1 -3 7 -6
10 -7 7z"/>
<path d="M522 4007 c-9 -10 -1 -16 33 -26 24 -7 46 -19 49 -27 4 -12 10 -12
26 -4 26 14 26 30 0 30 -12 0 -20 7 -20 18 0 14 2 14 9 3 5 -8 16 -11 27 -7
19 7 34 -8 34 -38 0 -13 -5 -17 -20 -13 -25 7 -26 -13 -1 -41 19 -23 37 -28
43 -14 2 5 19 2 38 -6 53 -23 80 -22 80 3 0 12 5 26 12 33 9 9 7 12 -10 12
-12 0 -22 4 -22 9 0 5 -3 17 -7 27 -5 13 -3 16 10 11 11 -4 14 -2 10 9 -6 17
-22 18 -46 0 -11 -9 -14 -15 -6 -18 8 -3 7 -7 -3 -16 -12 -9 -21 -6 -46 14
-17 15 -29 30 -26 35 3 5 -6 9 -19 9 -14 0 -40 2 -58 5 -19 3 -28 3 -21 -1 19
-9 14 -23 -8 -21 -11 1 -20 7 -20 14 0 17 -24 17 -38 0z"/>
<path d="M1055 3951 c3 -5 -6 -18 -20 -29 -15 -12 -21 -23 -15 -27 22 -14 9
-26 -21 -20 -31 7 -31 6 -27 -23 l4 -31 -33 14 c-18 8 -36 13 -40 12 -4 -1
-10 11 -14 27 -8 28 -8 28 13 10 20 -18 21 -18 15 -1 -4 9 -2 28 3 42 6 15 6
25 0 25 -5 0 -11 -8 -14 -17 -4 -12 -17 -19 -37 -20 -18 -1 -33 -4 -35 -6 -7
-6 9 -47 16 -42 4 3 11 -2 14 -10 4 -10 -2 -19 -17 -25 -25 -10 -24 -11 20
-14 17 -1 29 2 27 6 -3 4 2 8 10 8 9 0 16 -9 16 -20 0 -11 7 -20 16 -20 8 0
12 -5 9 -11 -4 -6 -14 -8 -22 -5 -9 4 -22 1 -29 -5 -11 -9 -14 -7 -14 10 0 11
-4 21 -10 21 -5 0 -10 -13 -10 -30 0 -34 6 -37 32 -13 14 13 21 14 30 5 15
-15 32 -16 23 -2 -9 15 11 12 24 -4 14 -17 51 -28 51 -15 0 5 -8 9 -18 9 -10
0 -19 7 -19 15 0 8 4 15 9 15 19 0 6 20 -14 21 -15 0 -18 2 -8 6 31 12 41 25
29 39 -9 11 -6 14 19 14 17 0 42 4 55 9 23 9 24 12 13 45 -6 20 -17 38 -24 41
-7 3 -11 1 -7 -4z"/>
<path d="M538 3864 c-14 -14 -8 -33 18 -57 l26 -24 -24 2 c-38 4 -39 5 -33 15
9 15 -22 12 -32 -2 -4 -7 -8 -22 -8 -33 0 -11 -11 -25 -25 -32 -24 -12 -24
-13 -3 -13 23 0 48 33 38 50 -3 6 2 10 11 10 10 0 14 -3 11 -7 -4 -3 -2 -13 5
-20 9 -11 9 -17 -3 -24 -10 -6 -7 -9 13 -9 14 0 28 -3 31 -7 2 -5 2 -3 1 4 -2
7 1 15 7 18 5 4 7 11 3 16 -3 6 3 13 15 16 11 3 18 9 15 14 -8 14 10 10 32 -6
19 -15 19 -15 0 -30 -11 -8 -14 -15 -8 -15 7 0 12 -6 12 -14 0 -8 5 -18 10
-21 7 -4 9 2 4 19 -5 22 -3 26 15 26 12 0 20 3 20 8 -4 23 4 32 29 31 23 -2
24 -2 5 -6 -34 -7 -28 -20 12 -25 24 -3 35 0 35 9 0 7 6 13 14 13 7 0 27 7 42
15 27 14 27 15 7 15 -13 0 -22 5 -20 13 3 16 -100 14 -116 -2 -9 -9 -7 -11 8
-6 16 6 17 5 5 -4 -22 -16 -30 -13 -30 9 0 27 -18 25 -22 -2 -3 -21 -5 -20
-22 10 -15 30 -19 32 -34 20 -22 -19 -50 -12 -54 14 -2 11 -6 16 -10 12z"/>
<path d="M3309 3821 c8 -15 9 -21 2 -17 -6 4 -15 -4 -21 -19 -10 -26 -13 -72
-3 -47 2 6 9 12 14 12 6 0 7 -4 4 -10 -3 -5 1 -10 9 -10 9 0 16 -6 16 -14 0
-15 -27 -30 -32 -17 -2 4 -16 11 -31 15 -22 5 -27 4 -21 -6 5 -7 7 -22 6 -33
-2 -18 -2 -19 8 -2 15 23 33 22 25 -2 -3 -11 0 -23 7 -27 6 -4 14 -2 16 4 2 7
15 9 32 6 20 -5 34 0 49 15 24 24 30 51 7 32 -11 -10 -14 -9 -12 3 3 24 14 30
30 17 11 -9 15 -8 19 3 5 12 -2 14 -34 11 -21 -3 -39 0 -39 5 0 6 0 13 0 18 0
4 5 7 11 7 6 0 17 9 25 19 12 17 12 22 -2 38 -9 9 -22 14 -28 11 -19 -13 -40
-12 -55 0 -12 10 -13 9 -2 -12z"/>
<path d="M1171 3703 c-25 -21 -35 -61 -21 -83 9 -13 11 -13 20 0 7 12 9 10 8
-7 -2 -17 -8 -21 -38 -20 -19 0 -28 2 -19 4 26 6 12 50 -18 56 -17 3 -21 1
-14 -6 17 -17 13 -26 -8 -20 -12 3 -17 11 -14 19 8 20 -13 17 -23 -3 -4 -10
-8 -21 -8 -25 -2 -15 -16 -20 -16 -5 0 25 -18 20 -22 -5 -2 -19 -8 -22 -32
-20 -16 2 -32 -2 -37 -10 -6 -9 -9 -7 -9 9 0 12 -5 25 -12 29 -7 5 -9 2 -5 -9
4 -10 -3 -21 -19 -31 -16 -11 -24 -13 -24 -5 0 7 -2 10 -5 7 -3 -3 -1 -17 4
-32 11 -28 5 -59 -10 -50 -5 3 -9 0 -9 -5 0 -6 -9 -11 -20 -11 -18 0 -19 -2
-8 -20 14 -22 43 -27 54 -9 4 7 7 23 8 37 1 26 26 45 26 20 0 -10 2 -10 9 1 5
7 14 10 21 6 9 -6 9 -10 -1 -17 -11 -7 -9 -8 6 -6 12 2 19 10 17 21 -2 10 3
17 12 17 20 0 29 -17 14 -23 -10 -4 -9 -6 1 -6 11 -1 11 -4 0 -17 -10 -12 -10
-20 -2 -34 7 -10 10 -28 7 -41 l-5 -24 11 24 c9 20 13 21 26 10 13 -11 15 -10
12 6 -1 10 3 20 10 22 7 3 12 -5 12 -20 0 -28 -49 -61 -76 -50 -7 3 -14 0 -14
-5 0 -6 -10 -13 -22 -15 -13 -2 -8 -3 9 -1 l33 3 -20 -21 c-11 -12 -17 -24
-15 -28 2 -4 -7 -17 -21 -29 -19 -16 -26 -18 -30 -8 -3 8 -12 14 -20 14 -9 0
-13 -6 -9 -14 4 -11 -1 -13 -18 -8 -16 5 -18 4 -8 -3 8 -6 11 -17 8 -26 -3 -8
-2 -18 3 -21 6 -4 10 1 10 10 0 9 4 14 9 10 5 -3 11 0 14 7 2 7 3 5 2 -4 -5
-28 14 -32 24 -6 l10 23 0 -22 c1 -29 21 -30 28 -3 l6 21 19 -21 c19 -20 44
-28 34 -11 -4 5 3 7 14 4 11 -3 23 -9 26 -14 3 -5 -2 -6 -10 -3 -8 3 -19 -3
-25 -14 -8 -16 -7 -21 5 -26 23 -9 27 -7 20 9 -4 10 1 15 14 15 28 0 25 34 -4
50 -23 12 -26 40 -4 40 6 0 7 -7 4 -16 -5 -13 -1 -15 24 -12 16 3 30 1 30 -3
0 -5 16 -6 35 -4 39 5 42 3 19 -19 -14 -14 -13 -18 11 -40 16 -15 33 -22 45
-19 14 4 20 0 20 -11 0 -9 5 -16 10 -16 6 0 10 9 10 20 0 11 -5 20 -10 20 -6
0 -16 11 -22 25 -6 14 -16 25 -23 25 -6 0 -17 17 -24 38 -18 49 -41 83 -52 77
-4 -3 -5 -13 -2 -22 5 -13 1 -12 -17 5 -24 22 -54 32 -33 11 9 -9 3 -19 -20
-40 -17 -16 -35 -29 -40 -29 -15 0 4 44 27 62 18 15 19 19 6 28 -11 7 -11 10
-2 10 7 0 11 3 9 8 -2 4 5 15 16 25 19 19 19 18 12 -2 -5 -16 -3 -20 9 -15 9
3 16 14 16 23 1 14 2 14 11 -1 20 -36 34 -19 37 43 6 108 24 129 111 129 41 0
49 -3 45 -15 -4 -10 0 -15 11 -15 9 0 13 -4 10 -10 -3 -5 6 -12 20 -16 14 -3
30 -15 36 -25 5 -11 14 -17 18 -14 11 6 23 -23 15 -36 -3 -5 -12 -9 -20 -9 -8
0 -12 -5 -9 -10 4 -6 1 -17 -5 -25 -25 -30 -2 -14 43 30 26 25 51 45 56 45 17
0 30 -35 40 -104 11 -80 31 -138 51 -151 21 -13 176 -16 222 -4 41 11 49 21
89 119 l27 65 52 -3 c33 -2 50 0 46 7 -4 5 7 11 26 13 27 3 23 5 -24 12 -42 6
-58 13 -58 24 0 8 -8 24 -17 35 -10 11 -13 18 -8 15 6 -4 18 0 28 7 15 11 16
17 7 34 -6 12 -16 21 -23 21 -7 0 -29 9 -49 20 -33 18 -46 18 -140 10 -57 -5
-131 -9 -164 -10 -46 0 -63 -4 -68 -15 -5 -13 -13 -12 -53 8 -27 14 -63 29
-80 35 -34 11 -73 6 -73 -9 0 -5 -7 -9 -15 -9 -8 0 -15 5 -15 11 0 5 -4 7 -10
4 -5 -3 -10 -1 -10 5 0 6 -6 10 -12 9 -31 -4 -37 2 -34 30 2 15 7 34 11 42 5
8 -1 5 -13 -5 -12 -11 -25 -16 -29 -13 -4 4 2 14 13 22 10 8 14 15 8 15 -7 0
-21 -8 -33 -17z m375 -328 c5 -50 8 -56 15 -36 5 13 7 40 3 60 -4 25 -2 32 4
22 8 -11 11 -10 15 5 4 16 5 16 6 -3 2 -41 36 -53 152 -53 l107 0 11 28 11 27
-5 -30 c-15 -75 -29 -110 -56 -138 -29 -28 -33 -29 -102 -25 -90 6 -142 31
-157 72 -6 17 -13 63 -15 101 -4 76 0 64 11 -30z"/>
<path d="M1357 3173 c-21 -24 -21 -27 -1 -48 15 -15 15 -17 -4 -22 -33 -8 -86
-97 -78 -131 4 -15 7 -33 8 -39 2 -16 -6 -13 54 -19 35 -4 54 -1 59 7 6 9 1
10 -19 5 -34 -8 -47 18 -21 42 13 13 19 14 22 5 3 -9 26 -13 65 -13 43 0 59
-3 56 -12 -3 -7 -20 -15 -39 -19 -27 -4 -20 -6 36 -11 39 -3 80 -9 91 -13 25
-8 34 9 27 49 -7 35 -48 64 -71 50 -17 -11 -52 10 -52 32 0 7 -5 14 -11 16
-20 7 0 45 31 58 16 7 34 18 40 26 10 11 5 12 -25 7 -28 -5 -41 -1 -59 16 -33
31 -87 38 -109 14z"/>
<path d="M727 3040 c-3 -13 -12 -20 -23 -18 -16 3 -18 -6 -19 -63 -1 -36 -5
-70 -8 -76 -3 -5 0 -10 7 -10 8 0 12 5 10 11 -2 6 9 19 25 29 18 11 28 23 25
32 -8 19 11 51 20 36 4 -6 2 -11 -5 -11 -8 0 -8 -4 1 -15 11 -13 8 -21 -15
-45 -24 -25 -26 -30 -11 -36 9 -3 23 -1 31 6 9 7 20 8 30 3 14 -8 14 -12 -4
-34 -16 -21 -17 -26 -4 -26 8 0 20 11 26 24 13 30 32 24 32 -10 l-1 -26 23 21
23 21 0 -26 c0 -18 5 -27 15 -27 12 0 14 -7 9 -27 -4 -20 -3 -24 4 -14 5 7 14
11 20 7 5 -3 13 1 16 10 3 8 2 12 -4 9 -5 -3 -19 4 -30 15 l-21 21 20 6 c25 6
27 35 6 57 -9 8 -14 21 -13 28 2 8 -9 13 -32 13 -44 1 -62 -4 -54 -16 3 -5 0
-9 -6 -9 -15 0 -49 60 -43 77 3 7 11 12 17 10 6 -2 21 0 34 4 13 5 22 5 22 -1
0 -5 7 -7 15 -4 8 4 15 13 15 21 0 8 5 11 10 8 6 -3 10 -1 10 5 0 9 -12 9 -55
0 -23 -5 -34 1 -29 15 7 17 -4 19 -26 5 -13 -9 -13 -11 0 -20 12 -8 11 -10 -7
-10 -15 0 -23 7 -25 22 -4 29 -24 34 -31 8z"/>
<path d="M3474 2686 c15 -12 16 -19 8 -29 -9 -10 -7 -19 8 -35 25 -26 25 -28
0 -35 -24 -6 -28 -47 -5 -47 8 0 15 7 15 15 0 20 46 20 54 -1 5 -13 9 -14 20
-5 10 8 16 9 21 1 4 -6 12 -7 22 -1 9 4 24 6 33 4 15 -4 18 2 18 31 0 29 -4
36 -20 36 -14 0 -18 -5 -14 -16 5 -14 2 -15 -21 -8 -16 4 -38 7 -50 7 -13 -1
-23 5 -23 13 0 17 1 17 35 4 32 -12 84 15 65 34 -8 8 -13 7 -20 -4 -5 -8 -10
-10 -10 -4 0 17 -48 35 -75 28 -13 -3 -35 1 -52 11 -22 13 -24 14 -9 1z"/>
<path d="M257 2478 c-14 -20 -18 -21 -28 -8 -9 13 -10 12 -5 -2 3 -10 1 -18
-4 -18 -6 0 -18 -13 -28 -28 -17 -29 -42 -32 -42 -6 0 8 -4 14 -10 14 -5 0
-10 7 -10 15 0 15 -24 16 -48 2 -7 -5 -26 -1 -44 7 -35 18 -41 16 -33 -6 4 -9
19 -18 36 -22 20 -4 29 -11 29 -25 0 -11 6 -22 13 -25 8 -4 7 -5 -3 -4 -24 2
-50 -13 -50 -29 0 -8 4 -11 10 -8 15 9 52 -15 46 -30 -3 -8 -1 -17 4 -20 6 -4
10 1 10 9 0 19 16 21 23 4 4 -10 8 -9 17 2 9 11 13 12 17 3 3 -10 8 -10 19 1
19 20 18 29 -7 44 -20 13 -20 14 -2 27 29 23 44 19 33 -9 -6 -18 -5 -28 6 -36
11 -10 14 -10 15 1 0 8 5 2 11 -13 11 -32 33 -36 47 -9 6 10 9 20 8 22 -1 3 2
1 7 -2 4 -4 26 -1 48 7 22 8 49 14 60 14 11 0 16 4 12 11 -4 8 0 7 15 -1 12
-6 30 -9 39 -7 14 3 12 6 -8 15 -23 10 -22 10 14 10 23 -1 42 4 44 10 2 7 8 9
13 6 6 -4 6 -10 0 -17 -6 -8 -4 -16 5 -25 14 -13 15 -13 18 31 1 6 7 18 14 26
8 8 12 25 9 38 -2 12 0 23 4 23 5 0 9 5 9 10 0 19 -21 10 -29 -12 -8 -23 -56
-33 -78 -15 -9 7 -13 4 -13 -8 0 -10 3 -16 6 -12 7 7 34 -17 34 -31 0 -6 -7
-12 -15 -16 -8 -3 -15 -1 -15 4 0 5 -8 6 -17 3 -16 -6 -16 -5 -4 10 12 16 11
16 -27 3 -41 -15 -82 -12 -82 6 0 5 -9 6 -20 3 -21 -7 -29 10 -7 18 9 3 9 8 1
17 -9 9 -18 8 -38 -5 -14 -10 -26 -14 -26 -9 0 4 -5 3 -12 -4 -7 -7 -16 -12
-22 -12 -17 0 37 44 56 45 26 2 35 15 18 25 -22 14 -26 13 -43 -12z"/>
<path d="M195 2282 c-15 -22 -16 -24 -2 -13 21 17 27 12 32 -28 4 -28 2 -30
-15 -21 -11 6 -20 15 -20 20 0 6 -4 10 -10 10 -5 0 -7 -14 -5 -30 2 -17 0 -28
-6 -25 -5 4 -9 -1 -9 -9 0 -9 7 -16 16 -16 11 0 15 -6 11 -19 -3 -14 -1 -18 9
-14 12 4 13 1 3 -21 -7 -15 -15 -23 -18 -18 -10 15 -40 21 -47 10 -4 -6 0 -16
9 -23 13 -9 14 -14 4 -25 -10 -10 -8 -10 8 -2 15 7 25 6 40 -4 27 -20 38 -17
25 5 -11 21 2 37 20 26 6 -3 10 -1 10 4 0 14 30 14 50 1 13 -8 11 -11 -7 -16
-13 -4 -23 -11 -23 -16 0 -5 10 -6 23 -2 27 8 23 3 31 41 8 35 -10 55 -28 32
-13 -17 -66 -24 -66 -9 0 6 14 10 31 10 41 0 33 22 -12 31 -22 5 -37 3 -42 -4
-6 -8 -7 -6 -3 5 3 10 1 20 -4 23 -6 4 -10 13 -10 22 0 13 3 13 15 3 8 -7 24
-10 35 -7 11 3 18 2 15 -3 -6 -10 16 -19 33 -13 6 3 12 11 12 18 0 7 -6 16
-12 19 -7 3 -1 3 15 1 15 -2 27 1 27 6 0 5 -4 9 -10 9 -5 0 -10 7 -10 16 0 11
6 15 20 11 11 -3 20 -1 20 4 0 5 -4 9 -10 9 -5 0 -10 7 -10 15 0 8 -7 15 -15
15 -16 0 -21 -16 -6 -22 5 -1 3 -11 -4 -22 -8 -10 -19 -15 -26 -11 -8 6 -7 10
5 17 9 5 14 13 11 19 -4 5 -13 3 -21 -6 -16 -16 -45 -21 -43 -7 6 38 -10 40
-36 4z"/>
<path d="M37 2206 c-4 -10 1 -12 14 -9 17 5 19 1 17 -31 -2 -20 -7 -36 -11
-36 -5 0 -5 -4 -2 -10 3 -5 1 -10 -4 -10 -6 0 -11 4 -11 8 0 4 -9 8 -20 8 -18
0 -20 -7 -20 -60 0 -33 3 -57 6 -53 8 8 44 -25 44 -41 0 -7 5 -10 11 -6 15 9
0 -38 -15 -48 -7 -5 -5 -8 6 -8 21 0 53 -56 38 -65 -17 -11 -12 -73 8 -84 9
-6 14 -11 9 -11 -4 0 0 -11 9 -25 16 -24 15 -25 -4 -25 -11 0 -23 6 -25 13 -3
6 -6 3 -6 -8 0 -11 3 -26 8 -33 6 -11 10 -10 15 4 3 9 9 14 13 10 12 -11 13
-45 3 -51 -15 -9 -12 -35 5 -35 9 0 12 -6 8 -17 -4 -11 -3 -14 5 -9 7 4 12 2
12 -3 0 -6 -6 -11 -13 -11 -7 0 -17 -10 -22 -22 -6 -13 -16 -23 -24 -23 -10 0
-14 -18 -16 -66 -2 -79 -7 -89 -46 -89 -28 0 -29 -2 -29 -45 l0 -45 68 0 c72
0 92 -10 92 -45 0 -12 7 -30 15 -41 8 -10 15 -30 15 -43 l0 -24 -23 20 c-41
37 -51 37 -23 0 16 -20 31 -37 35 -37 3 0 20 -13 36 -28 17 -15 38 -31 47 -34
9 -4 18 -17 20 -29 5 -33 28 -36 28 -4 0 32 24 81 46 93 12 7 17 32 21 114 7
121 4 125 -71 101 -59 -20 -86 -4 -37 21 19 10 31 12 31 6 0 -6 5 -8 10 -5 6
4 7 11 4 17 -4 6 1 6 14 -1 25 -13 43 -14 22 -1 -8 5 -11 12 -7 16 3 4 13 1
21 -5 17 -14 24 2 26 64 3 55 1 62 -9 46 -7 -10 -13 -11 -30 -2 -17 10 -21 9
-21 -4 0 -8 4 -15 9 -15 5 0 7 -8 4 -18 -5 -21 -44 -23 -51 -4 -2 7 -7 10 -12
7 -5 -3 -7 3 -6 12 4 23 26 29 26 7 0 -14 3 -15 12 -6 10 10 10 17 -1 34 -11
18 -11 20 1 15 8 -3 21 -1 29 3 8 6 16 4 21 -3 5 -9 11 -8 23 4 11 11 24 69
41 185 28 199 27 185 13 182 -6 -2 -14 3 -16 10 -3 9 2 12 13 10 14 -2 20 4
22 25 2 15 6 27 10 27 4 0 7 17 7 38 0 20 3 51 7 68 6 28 4 32 -15 36 -13 3
-29 -2 -36 -10 -19 -20 -33 5 -18 30 13 21 -2 55 -23 50 -7 -2 -9 5 -5 20 3
13 3 19 -2 13 -4 -5 -17 -10 -27 -10 -11 0 -21 -5 -23 -11 -2 -6 3 -11 11 -11
8 0 13 4 10 9 -3 4 0 8 5 8 6 0 11 -7 11 -15 0 -8 4 -15 8 -15 4 0 8 -9 8 -20
0 -11 -4 -20 -8 -20 -4 0 -8 7 -8 15 0 22 -17 18 -23 -5 -3 -14 0 -20 10 -20
10 0 14 -6 10 -20 -3 -13 0 -20 9 -20 17 0 18 -17 2 -23 -10 -4 -10 -7 0 -18
20 -21 14 -31 -15 -25 -22 4 -35 -1 -61 -24 -18 -17 -30 -34 -27 -39 3 -5 -3
-7 -14 -4 -10 3 -22 0 -25 -6 -4 -6 -16 -11 -27 -11 -11 0 -18 -4 -15 -9 3 -5
-4 -16 -17 -24 -21 -14 -23 -13 -33 8 -12 24 0 60 16 50 4 -3 10 2 14 10 3 10
19 15 48 15 49 0 90 23 82 45 -4 8 1 17 10 21 12 4 12 9 3 18 -14 15 -37 -2
-30 -21 3 -7 -2 -13 -12 -13 -9 0 -14 -3 -12 -7 3 -5 -1 -14 -9 -21 -12 -11
-16 -9 -24 13 -12 31 -50 35 -50 5 0 -11 -4 -20 -10 -20 -13 0 -13 37 0 45 6
3 10 11 10 17 0 7 -6 6 -15 -2 -8 -7 -15 -25 -15 -41 0 -16 -4 -29 -9 -29 -5
0 -7 9 -4 19 7 26 -14 61 -35 61 -15 0 -15 -2 -2 -10 10 -6 11 -10 3 -10 -7 0
-16 0 -20 0 -4 0 -8 6 -9 13 -1 8 -5 24 -9 36 -8 25 3 50 15 32 9 -16 42 -2
36 15 -3 7 3 15 12 18 9 3 5 4 -10 2 -23 -3 -25 -1 -15 15 9 15 8 22 -8 37
-28 26 -52 33 -58 18z"/>
<path d="M304 479 c-5 -56 -10 -77 -15 -64 -7 18 -8 17 -8 -6 -1 -14 -8 -34
-16 -45 -8 -10 -15 -33 -15 -51 0 -33 -2 -33 90 -48 31 -6 36 -4 37 14 1 12
-2 21 -8 21 -5 0 -9 -6 -9 -14 0 -11 -8 -12 -36 -6 -49 11 -54 20 -11 20 35 0
36 1 32 32 -2 18 -9 34 -14 36 -12 4 6 40 29 59 13 10 13 12 -2 18 -10 4 -18
13 -18 21 0 8 -4 14 -10 14 -5 0 -10 7 -10 15 0 9 9 15 21 15 14 0 19 5 17 18
-2 9 -10 17 -18 17 -8 0 -18 4 -22 9 -3 5 -10 -28 -14 -75z"/>
</g>
</svg>
