<?xml version="1.0" standalone="no"?>
<!DOCTYPE svg PUBLIC "-//W3C//DTD SVG 20010904//EN"
 "http://www.w3.org/TR/2001/REC-SVG-20010904/DTD/svg10.dtd">
<svg version="1.0" xmlns="http://www.w3.org/2000/svg"
 width="409.000000pt" height="536.000000pt" viewBox="0 0 409.000000 536.000000"
 preserveAspectRatio="xMidYMid meet">
<metadata>
Created by potrace 1.16, written by Peter Selinger 2001-2019
</metadata>
<g transform="translate(0.000000,536.000000) scale(0.100000,-0.100000)"
fill="#000000" stroke="none">
<path d="M2709 5157 c-8 -18 -17 -23 -33 -20 -17 4 -25 -1 -29 -17 -5 -19 -10
-21 -63 -16 -35 4 -62 2 -71 -5 -7 -7 -28 -19 -46 -29 -17 -10 -32 -24 -32
-31 0 -8 -8 -13 -17 -11 -17 3 -34 -33 -37 -80 -1 -22 -21 -24 -21 -3 0 8 -8
15 -18 15 -10 0 -23 5 -30 12 -9 9 -12 9 -12 -1 0 -25 -94 14 -111 46 -14 26
-29 30 -29 8 0 -8 -7 -15 -15 -15 -17 0 -19 -9 -5 -30 14 -22 -11 -32 -33 -12
-16 14 -19 14 -28 2 -8 -13 -10 -13 -19 0 -8 13 -10 13 -10 -2 0 -10 -10 -22
-21 -29 -20 -10 -21 -9 -17 20 5 31 4 32 -26 26 -31 -7 -76 -49 -76 -72 0 -6
-4 -14 -8 -17 -4 -2 -6 11 -4 31 3 25 1 34 -7 29 -6 -4 -11 -12 -11 -18 0 -18
-34 -37 -46 -27 -12 10 -71 -17 -106 -48 -9 -8 -22 -12 -28 -8 -6 4 -17 -1
-24 -10 -11 -16 -13 -16 -26 0 -12 14 -16 13 -42 -15 -15 -17 -28 -38 -28 -46
0 -8 -11 -20 -25 -26 -14 -6 -25 -18 -25 -27 0 -14 2 -14 10 -1 7 12 12 12 22
2 6 -6 20 -12 31 -12 10 0 15 -5 12 -10 -4 -6 -16 -10 -28 -8 -16 2 -23 -3
-25 -19 -2 -13 -9 -23 -16 -23 -14 0 -30 -55 -21 -70 3 -4 -5 -11 -18 -15 -18
-6 -19 -8 -5 -12 9 -2 15 -10 12 -17 -3 -9 11 -11 58 -8 62 4 64 3 96 -32 30
-33 36 -36 72 -30 33 5 49 1 97 -26 32 -18 68 -43 80 -56 12 -13 29 -24 38
-24 9 0 13 -5 10 -10 -3 -6 2 -13 12 -17 10 -4 35 -17 56 -30 36 -22 37 -25
31 -66 -3 -23 -9 -54 -14 -68 -12 -40 14 -87 93 -165 40 -39 81 -81 91 -92 22
-25 38 -112 30 -162 -7 -42 -37 -109 -61 -136 -10 -10 -18 -25 -19 -31 -1 -7
-2 -26 -2 -42 -1 -16 -9 -36 -17 -45 -8 -8 -15 -23 -15 -32 0 -21 -16 -7 -22
18 -6 32 -30 2 -35 -44 -4 -33 -1 -49 11 -60 9 -9 16 -23 16 -32 0 -8 5 -18
10 -21 17 -10 11 -33 -9 -40 -10 -3 -29 -21 -42 -40 -13 -19 -29 -35 -36 -35
-7 0 -17 -9 -23 -20 -6 -11 -15 -18 -21 -14 -5 3 -26 -4 -45 -15 -19 -12 -44
-21 -54 -21 -10 0 -21 -4 -24 -9 -13 -21 -108 -61 -146 -61 -44 0 -48 -8 -24
-46 9 -13 14 -27 10 -31 -3 -3 3 -12 14 -20 11 -8 20 -18 20 -24 0 -10 -32 6
-63 31 -15 12 -20 12 -26 1 -6 -9 -11 -10 -15 -2 -4 6 -18 9 -31 7 -16 -3 -25
1 -28 12 -3 12 -5 10 -6 -5 -1 -17 -7 -23 -23 -23 -22 0 -33 -5 -87 -38 -19
-11 -22 -10 -31 13 -7 18 -15 24 -32 21 -22 -3 -31 -28 -17 -51 3 -5 6 -23 7
-39 2 -26 0 -27 -15 -15 -46 36 -48 40 -27 56 19 15 18 15 -2 9 -17 -5 -23 -1
-28 19 -8 32 -16 32 -54 -4 l-30 -29 25 -34 c13 -18 34 -53 46 -77 18 -40 21
-42 28 -22 5 12 17 21 28 21 11 0 22 4 25 9 13 20 49 -5 82 -55 18 -30 34 -58
34 -62 0 -4 15 -30 33 -58 19 -28 36 -58 40 -67 3 -9 13 -17 21 -17 7 0 16 -7
20 -15 9 -25 -5 -45 -30 -45 -19 0 -26 7 -30 30 -4 17 -11 30 -16 30 -6 0 -8
9 -5 20 3 13 0 20 -9 20 -8 0 -14 9 -14 20 0 11 -4 20 -9 20 -5 0 -13 9 -16
21 -5 16 -12 19 -32 14 -16 -4 -22 -2 -18 5 3 5 1 10 -4 10 -6 0 -11 -7 -11
-16 0 -25 -21 -11 -42 26 l-18 35 0 -30 c1 -17 8 -48 16 -70 25 -65 27 -75 15
-75 -6 0 -11 11 -11 25 0 14 -3 25 -7 25 -5 0 -17 14 -28 30 -15 22 -28 30
-50 30 -17 0 -36 5 -41 10 -6 6 -18 8 -27 4 -15 -5 -14 -10 8 -38 14 -18 25
-38 25 -44 0 -19 -31 -1 -41 24 -4 13 -13 24 -19 24 -8 0 -8 -6 0 -20 8 -15 8
-20 -2 -20 -8 -1 -7 -5 5 -14 9 -7 15 -20 12 -28 -6 -14 23 -29 59 -32 6 -1
18 -16 29 -33 16 -29 17 -33 3 -33 -9 0 -13 6 -10 13 3 8 -2 19 -9 26 -12 9
-16 8 -21 -4 -5 -15 -8 -15 -28 -1 -22 16 -68 22 -68 10 0 -4 16 -27 36 -51
22 -27 34 -50 30 -59 -5 -12 -2 -15 10 -10 12 5 14 1 9 -15 -5 -15 -4 -19 4
-15 7 5 11 -2 11 -18 0 -13 3 -31 6 -39 4 -12 -4 -14 -43 -11 -26 1 -39 1 -27
-2 16 -4 20 -11 16 -29 l-4 -24 -23 27 c-13 15 -27 23 -31 19 -5 -4 -3 -12 4
-16 7 -4 10 -16 6 -27 -4 -14 -3 -15 4 -5 7 10 11 10 17 1 4 -6 4 -14 1 -17
-3 -3 -1 -14 5 -24 8 -15 6 -19 -6 -19 -20 0 -13 -28 21 -78 13 -19 22 -38 19
-41 -4 -3 -10 1 -15 8 -5 8 -17 12 -30 8 -21 -5 -21 -5 -5 13 10 11 12 19 5
22 -6 2 -12 12 -14 23 -3 21 -35 23 -47 3 -3 -5 -18 -6 -34 -2 -21 5 -27 4
-23 -7 2 -8 17 -15 32 -17 25 -3 28 -7 22 -32 -3 -19 -1 -32 7 -37 15 -9 57
-79 57 -95 0 -6 -9 1 -20 15 -11 14 -20 32 -20 41 0 9 -6 16 -13 16 -8 0 -20
11 -27 25 -7 14 -22 25 -32 25 -11 0 -16 -4 -13 -10 3 -5 -3 -10 -14 -10 -12
0 -21 -7 -21 -15 0 -8 -7 -15 -15 -15 -8 0 -15 -4 -15 -9 0 -5 10 -7 22 -4 21
4 21 3 6 -9 -11 -10 -14 -19 -7 -29 16 -26 9 -33 -11 -11 -12 12 -26 22 -33
22 -8 0 -8 -3 2 -9 7 -5 11 -13 7 -19 -3 -6 0 -13 6 -16 10 -5 10 -7 1 -12 -7
-3 -13 -10 -13 -15 0 -23 119 -124 177 -149 30 -14 52 -39 35 -41 -4 0 -17 -2
-29 -5 -13 -2 -22 0 -20 4 3 12 -79 82 -97 82 -24 0 -19 -18 6 -22 12 -2 24
-10 26 -18 5 -13 3 -13 -13 0 -11 8 -16 10 -11 3 5 -10 -6 -11 -51 -6 -32 4
-71 7 -88 7 -84 -3 -135 -9 -135 -18 0 -5 3 -7 6 -3 4 3 13 -1 21 -9 22 -22
14 -23 -50 -7 -54 14 -59 14 -71 -3 -9 -11 -18 -14 -27 -9 -12 8 -12 6 0 -9 8
-9 20 -15 27 -12 8 3 20 -1 28 -10 9 -8 17 -10 21 -5 3 6 12 8 20 5 8 -4 12
-10 9 -15 -3 -5 -1 -9 5 -9 5 0 17 -7 25 -16 15 -14 17 -14 23 1 5 15 8 14 19
-6 7 -13 13 -18 14 -11 0 6 5 12 11 12 5 0 7 -4 4 -10 -3 -5 1 -10 10 -10 9 0
14 -4 11 -9 -3 -5 -15 -7 -26 -4 -22 6 -28 -12 -7 -20 8 -4 6 -6 -4 -6 -9 -1
-36 12 -60 29 -55 37 -82 40 -49 6 12 -14 35 -28 51 -31 46 -10 35 -28 -13
-21 -24 3 -65 8 -93 12 -27 3 -54 9 -58 14 -9 8 -47 2 -47 -8 0 -13 85 -82
101 -82 9 0 36 -16 60 -35 23 -20 62 -47 86 -62 24 -14 42 -28 39 -30 -3 -3
-11 -1 -18 3 -11 7 -138 54 -145 54 -2 0 -3 -7 -3 -16 0 -14 -10 -15 -76 -9
-42 3 -105 6 -140 6 -57 0 -63 2 -49 15 8 9 15 26 15 40 0 19 5 24 25 24 14 0
25 5 25 10 0 6 7 10 15 10 15 0 21 -25 8 -33 -5 -2 -2 -2 5 0 8 1 23 -3 34
-11 11 -8 27 -12 34 -9 8 3 21 0 29 -7 25 -21 27 -5 4 24 -15 19 -27 25 -40
21 -21 -7 -27 10 -6 19 6 3 2 3 -11 0 -13 -3 -29 0 -37 6 -10 8 -19 9 -28 3
-6 -6 -24 -13 -39 -17 -16 -3 -28 -13 -28 -22 0 -8 -5 -12 -11 -9 -5 4 -22 4
-37 0 -26 -6 -27 -7 -7 -22 18 -13 14 -14 -48 -8 l-69 8 -31 -38 c-50 -60 -56
-76 -57 -149 0 -51 4 -74 17 -88 16 -18 18 -15 54 58 21 41 46 82 56 89 45 33
264 46 358 21 85 -22 117 -44 213 -144 86 -89 94 -95 105 -78 7 11 26 36 42
55 17 20 49 63 70 96 22 33 47 64 55 69 44 25 154 154 185 216 19 39 40 70 45
70 5 0 31 20 56 46 25 25 48 44 50 42 1 -2 -1 -30 -6 -63 -5 -33 -14 -105 -20
-160 -6 -55 -15 -125 -20 -156 -6 -31 -15 -101 -20 -155 -5 -54 -21 -167 -35
-251 -31 -187 -48 -231 -84 -218 -18 7 54 -81 98 -120 19 -16 39 -35 45 -40
35 -34 170 -142 216 -174 19 -14 63 -51 97 -83 34 -32 65 -58 70 -58 4 0 24
-15 44 -34 51 -46 94 -71 159 -91 l56 -17 47 29 c36 24 71 34 159 48 76 12
132 27 172 47 32 15 80 34 105 40 25 6 73 24 107 40 34 15 64 28 68 28 4 0 38
12 74 26 85 34 176 98 275 193 64 62 80 73 88 61 9 -12 9 -11 4 5 -23 68 -20
84 28 129 25 23 63 51 84 61 21 11 44 24 52 30 8 5 32 15 53 20 28 7 67 35
136 100 129 120 285 288 324 350 17 28 46 66 63 85 17 19 62 77 98 128 l67 92
0 84 c0 55 -6 101 -19 137 -14 43 -16 67 -11 117 5 34 13 68 19 76 8 9 11 108
11 316 l-1 302 -27 -5 c-27 -5 -27 -5 -6 12 29 23 41 61 20 61 -9 0 -16 -4
-16 -10 0 -5 -4 -10 -10 -10 -5 0 -10 9 -10 20 0 15 -7 20 -28 20 -15 0 -34
-6 -41 -12 -7 -7 -1 7 13 32 15 25 29 53 33 63 3 9 9 17 13 17 4 0 11 11 14
24 3 14 13 32 22 40 9 10 17 40 20 74 4 51 3 54 -7 27 -7 -16 -20 -41 -30 -54
-11 -13 -19 -30 -19 -38 0 -8 -9 -23 -20 -35 -11 -12 -20 -31 -20 -43 0 -12
-9 -30 -20 -40 -18 -17 -20 -17 -14 -2 4 12 1 17 -10 17 -9 0 -16 4 -16 9 0
21 50 114 67 126 14 10 18 22 15 44 -5 35 -21 41 -29 11 -3 -11 -9 -18 -13
-15 -5 3 -22 -9 -40 -26 -17 -17 -34 -28 -38 -25 -3 4 -2 10 4 14 20 14 82
109 93 145 7 20 17 39 22 43 5 3 7 10 4 15 -4 5 -1 9 4 9 6 0 11 7 11 16 0 10
6 14 14 11 10 -4 17 4 22 26 3 18 12 35 18 39 7 5 5 8 -6 8 -12 0 -18 8 -18
23 0 30 -33 57 -69 57 -16 0 -34 7 -41 15 -10 12 -15 11 -33 -6 -17 -16 -19
-23 -10 -37 6 -9 16 -16 22 -14 6 1 11 -4 11 -11 0 -8 10 -19 23 -25 12 -6 16
-11 10 -11 -8 -1 -13 -14 -12 -33 l1 -33 12 28 c7 15 15 25 18 22 6 -6 -7 -73
-15 -82 -11 -10 -79 -7 -85 4 -4 7 -27 16 -50 21 -45 11 -72 -2 -72 -34 0 -8
-8 -14 -17 -15 -11 0 -13 -3 -5 -6 14 -6 16 -69 2 -78 -17 -10 -47 18 -45 43
1 14 -4 22 -14 22 -14 0 -14 2 -2 9 13 8 13 12 1 26 -9 11 -10 19 -4 23 12 8
11 64 0 60 -4 -2 -16 16 -27 39 -19 42 -65 83 -92 83 -8 0 -20 6 -26 14 -6 7
-23 14 -36 14 -20 0 -23 -3 -14 -14 8 -9 8 -14 1 -14 -6 0 -14 5 -17 10 -11
19 -25 -1 -25 -35 0 -26 -9 -42 -36 -69 -23 -22 -31 -37 -24 -41 8 -5 4 -15
-11 -31 -18 -19 -20 -27 -11 -36 17 -17 15 -38 -4 -38 -9 0 -12 5 -8 12 5 8 2
9 -10 5 -10 -4 -15 -3 -11 3 3 6 -5 14 -20 20 -22 8 -24 13 -15 29 15 30 30
35 30 11 0 -12 -4 -18 -10 -15 -5 3 -10 1 -10 -4 0 -6 9 -11 21 -11 11 0 18 4
14 9 -3 5 4 16 16 24 17 12 19 19 10 34 -6 10 -11 12 -11 6 0 -17 -37 -17 -43
0 -3 9 -7 9 -20 -2 -19 -15 -22 -8 -7 20 7 13 7 19 0 19 -5 0 -10 7 -10 15 0
8 -4 15 -10 15 -5 0 -10 12 -10 28 0 20 -3 23 -10 12 -7 -12 -10 -11 -15 5
-40 119 -85 165 -166 165 l-33 0 27 -28 c15 -16 24 -31 21 -35 -8 -7 26 -77
37 -77 9 0 39 -93 39 -122 0 -13 5 -30 10 -38 6 -10 4 -20 -6 -31 -13 -15 -13
-17 2 -23 13 -5 14 -9 5 -20 -8 -10 -9 -16 -1 -21 5 -3 10 -11 10 -16 0 -6 -6
-7 -12 -2 -7 4 -22 6 -33 5 -19 -3 -19 -2 -1 12 18 14 18 15 0 34 -11 10 -27
22 -36 25 -11 4 -18 17 -18 32 0 14 -7 28 -15 31 -12 5 -13 9 -3 21 9 11 9 16
-1 22 -7 5 -11 14 -10 22 3 16 -4 34 -38 111 l-26 56 22 27 c11 15 21 34 21
42 0 32 73 263 105 330 44 93 58 186 53 358 -3 131 -5 142 -28 173 -13 18 -26
47 -28 65 -1 18 -6 68 -10 112 -4 44 -11 79 -17 79 -5 -1 -21 -5 -35 -9 -24
-7 -25 -7 -7 13 13 14 17 33 16 65 -2 25 -7 43 -12 40 -5 -3 -6 15 -2 41 5 31
3 51 -5 61 -14 17 -5 35 17 35 14 0 14 3 -2 20 -10 11 -28 20 -40 20 -13 0
-28 7 -35 15 -7 8 -18 15 -24 15 -15 0 -50 -38 -61 -65 -7 -18 -8 -17 -16 10
-6 20 -5 32 4 37 9 6 9 8 0 8 -23 0 -14 32 22 76 43 52 44 64 3 64 -23 0 -41
-10 -70 -41 -37 -39 -40 -40 -45 -20 -3 14 -11 20 -19 17 -8 -3 -14 0 -14 7 0
8 -4 7 -10 -3 -10 -17 -12 -16 -34 28 -11 22 -15 44 -10 67 7 40 -1 46 -17 12z
m16 -1229 c33 -26 55 -75 55 -123 0 -99 -179 -315 -261 -315 -28 0 -69 33 -69
55 0 19 -26 20 -33 2 -3 -7 -3 -25 0 -39 7 -38 -14 -43 -32 -9 -22 44 -30 141
-16 198 17 64 51 107 108 133 27 13 56 26 66 31 15 8 17 4 17 -33 0 -24 7 -49
17 -60 9 -10 13 -18 10 -18 -13 0 -47 45 -47 63 0 26 -23 16 -31 -14 -4 -13
-7 -44 -8 -68 -1 -31 -8 -52 -23 -68 l-21 -23 24 -8 c26 -10 49 -5 49 9 0 5
-9 9 -20 9 -11 0 -20 5 -20 10 0 6 3 10 8 10 4 0 15 14 24 30 21 37 42 38 73
3 13 -16 26 -25 30 -22 3 4 -3 16 -15 27 -25 23 -20 43 10 35 29 -8 26 27 -5
61 -14 15 -25 34 -25 42 0 12 3 12 24 -1 28 -19 36 -8 29 41 -4 25 0 35 18 48
30 20 31 20 64 -6z m765 -913 c-10 -12 -10 -15 2 -15 7 0 21 9 31 20 18 21 47
27 47 9 0 -6 -9 -13 -20 -16 -25 -7 -26 -30 -2 -37 9 -3 -1 -3 -23 0 -31 3
-36 2 -22 -6 13 -9 15 -15 7 -30 -11 -20 3 -39 15 -20 9 14 35 12 33 -2 -2 -8
5 -12 16 -10 11 2 15 -1 11 -8 -4 -7 -24 -8 -54 -4 -33 4 -51 2 -56 -6 -5 -8
1 -11 21 -10 47 3 54 1 47 -16 -3 -9 -13 -14 -24 -11 -12 3 -19 0 -19 -10 0
-8 -5 -11 -11 -7 -6 3 -14 1 -18 -5 -6 -9 -14 -8 -32 1 -19 10 -24 21 -24 48
1 20 -6 40 -15 47 -13 11 -13 14 0 24 11 8 12 12 3 16 -16 6 -17 33 -1 33 6 0
20 7 30 17 17 15 18 15 18 -2 0 -17 2 -17 21 4 23 24 40 21 19 -4z m93 -291
c-7 -3 -9 -12 -6 -20 3 -9 -1 -14 -12 -14 -15 0 -15 -1 0 -16 11 -11 25 -14
45 -10 36 7 49 -11 18 -24 -22 -10 -22 -10 5 -7 23 4 25 2 15 -10 -8 -11 -9
-16 -1 -21 6 -4 14 -19 18 -34 5 -20 2 -29 -13 -37 -27 -14 -32 -14 -32 4 0 8
-9 15 -20 15 -25 0 -95 -66 -77 -74 7 -2 6 -5 -4 -5 -9 -1 -28 10 -43 24 -23
21 -24 25 -10 33 9 5 14 15 12 23 -3 8 2 20 11 27 14 12 13 13 -6 9 -30 -7
-29 6 2 23 19 10 23 19 19 37 -4 13 -2 23 5 23 6 0 8 7 5 15 -4 10 0 15 10 15
9 0 19 7 22 15 4 8 16 15 28 14 11 0 16 -3 9 -5z m-921 -236 c0 -7 2 -20 2
-28 1 -11 13 -15 49 -14 47 0 59 -8 35 -23 -7 -4 -13 -15 -13 -23 0 -8 -10
-19 -22 -25 -29 -13 -29 -19 3 -40 21 -14 24 -19 13 -26 -20 -13 9 -30 38 -22
20 4 23 1 23 -21 0 -16 6 -26 15 -26 17 0 11 -23 -15 -57 -17 -22 -16 -88 2
-77 5 3 6 15 2 26 -4 15 -2 19 7 16 8 -3 13 -12 11 -22 -2 -9 1 -16 6 -16 5 0
9 -7 9 -15 0 -8 -6 -15 -13 -15 -10 0 -12 -9 -8 -32 3 -18 6 -48 6 -65 -1 -26
4 -33 18 -33 20 0 19 -20 -3 -48 -13 -17 -19 -64 -7 -57 5 3 15 -4 24 -16 11
-17 12 -27 4 -45 -14 -31 -7 -37 26 -24 18 6 25 6 21 0 -3 -6 -13 -10 -22 -10
-11 0 -13 -3 -5 -12 16 -20 3 -68 -18 -68 -19 0 -23 -8 -35 -69 -5 -23 -10
-30 -15 -20 -5 7 -6 17 -4 21 11 18 -28 19 -65 1 -30 -13 -41 -24 -41 -41 0
-20 -4 -22 -35 -18 -19 2 -45 12 -57 21 l-23 17 28 -5 c15 -2 27 -1 27 3 0 12
-42 20 -67 14 -21 -6 -23 -3 -23 34 0 25 -5 40 -12 39 -33 -1 -44 5 -45 23 -1
11 2 20 8 20 5 0 9 9 9 20 0 25 -9 25 -26 3 -12 -16 -13 -13 -14 24 0 23 5 45
11 49 8 4 3 12 -12 20 -13 7 -18 13 -10 14 10 0 11 3 2 14 -7 8 -8 17 -3 20 5
3 6 26 1 53 -6 41 -5 50 12 65 11 10 19 28 18 45 0 15 11 73 24 128 14 55 27
120 30 143 5 42 4 44 -19 38 -13 -4 -24 -3 -24 1 1 26 50 53 50 28 0 -17 16
-20 25 -5 3 5 -3 15 -14 21 -10 7 -17 18 -14 25 3 8 -6 14 -24 17 -22 3 -20 4
11 6 37 1 39 2 20 16 -17 13 -14 14 39 15 44 0 57 3 57 15 0 18 19 20 22 3z
m213 -1038 c7 0 20 -3 29 -6 11 -4 16 0 16 14 0 16 5 19 30 13 17 -3 30 -9 28
-12 -2 -3 2 -12 8 -20 11 -13 18 -68 15 -116 -1 -19 -7 -23 -35 -23 -19 0 -38
5 -42 11 -3 6 -15 9 -25 6 -11 -3 -19 -1 -19 4 0 5 -15 6 -32 2 -27 -5 -31 -3
-20 8 17 18 16 22 -13 53 -28 30 -33 66 -10 66 9 0 18 7 21 15 5 13 8 13 21 0
8 -8 20 -15 28 -15z m-565 -34 c0 -27 38 -86 59 -94 22 -7 24 -14 26 -70 1
-40 -3 -66 -11 -73 -7 -6 -10 -18 -7 -27 6 -16 5 -16 -13 0 -10 9 -31 20 -47
23 -27 7 -47 25 -28 25 6 0 11 5 11 10 0 6 -6 10 -12 9 -34 -4 -68 3 -82 16
-18 18 -16 23 37 145 8 19 18 45 22 57 6 21 7 21 26 5 10 -9 19 -21 19 -26z"/>
<path d="M1601 4012 c-9 -3 -8 -9 5 -23 9 -10 21 -19 26 -19 12 0 48 -38 48
-51 0 -7 9 -27 21 -45 14 -24 28 -34 45 -34 13 0 24 5 24 10 0 19 39 10 45
-10 5 -15 15 -20 40 -20 19 0 36 4 39 9 4 5 24 12 46 16 43 7 55 25 17 25 -35
0 -213 58 -226 74 -22 26 5 25 93 -5 140 -47 144 -36 16 42 -51 31 -61 34
-141 35 -47 0 -91 -2 -98 -4z"/>
<path d="M1720 3641 c0 -48 -26 -71 -82 -71 -29 0 -36 -3 -32 -15 4 -10 0 -15
-15 -15 -12 0 -21 -3 -21 -7 1 -14 27 -43 39 -43 6 0 23 -7 36 -16 14 -9 31
-14 39 -11 8 3 20 -1 26 -9 10 -12 8 -14 -16 -15 l-29 -1 30 -9 c17 -5 40 -10
52 -12 12 -2 25 -6 29 -10 7 -7 -10 -11 -33 -8 -7 1 -13 -5 -13 -14 0 -17 3
-18 83 -20 31 0 57 3 57 7 0 20 -29 74 -48 92 -12 10 -34 19 -49 20 -16 0 -44
11 -63 23 l-34 22 43 39 c43 39 43 40 30 76 -17 47 -29 46 -29 -3z"/>
<path d="M208 1026 c-21 -16 -23 -59 -4 -78 113 -109 144 -136 149 -132 3 4
-1 16 -9 29 -11 17 -12 29 -5 49 6 14 15 26 21 26 15 0 12 36 -4 49 -7 6 -21
8 -30 5 -14 -5 -16 -2 -10 20 5 22 2 27 -21 36 -35 13 -66 12 -87 -4z"/>
<path d="M4023 983 c-24 -8 -43 -20 -43 -26 -1 -11 -55 -77 -64 -77 -2 0 -26
-21 -53 -47 -96 -94 -193 -171 -193 -156 0 16 -29 -34 -30 -49 0 -25 -25 -22
-42 4 l-15 23 -28 -33 c-15 -18 -45 -42 -66 -53 -40 -20 -48 -36 -27 -57 10
-9 9 -16 -4 -28 -14 -14 -20 -14 -69 6 -30 12 -65 28 -79 35 -14 8 -37 20 -52
26 -16 6 -28 17 -28 25 0 8 -9 14 -20 14 -16 0 -20 -7 -20 -36 0 -41 18 -63
54 -66 13 -1 22 -6 20 -10 -3 -4 0 -8 5 -8 6 0 11 -7 11 -16 0 -9 17 -22 40
-31 31 -13 40 -21 40 -40 0 -13 9 -33 20 -45 26 -28 25 -52 -2 -70 -15 -10
-30 -38 -41 -76 -19 -64 -38 -92 -63 -92 -8 0 -14 -4 -14 -10 0 -13 -52 -60
-66 -60 -6 0 -17 -7 -24 -15 -11 -13 40 -15 454 -15 l466 0 0 500 c0 394 -3
500 -12 499 -7 -1 -32 -8 -55 -16z"/>
<path d="M530 576 c0 -8 -6 -17 -12 -20 -7 -3 -3 -3 9 0 18 4 20 1 16 -16 -3
-11 -1 -20 5 -20 6 0 14 -9 17 -21 5 -16 13 -20 33 -15 15 3 21 3 15 0 -20 -9
-16 -25 13 -55 21 -22 24 -30 15 -48 -33 -61 -120 -330 -121 -373 0 -5 221 -8
490 -8 270 0 490 3 490 8 0 4 -10 12 -22 17 -13 6 -24 20 -26 32 -2 14 -8 20
-18 16 -8 -3 -14 -1 -14 5 0 5 -11 13 -25 16 -13 3 -40 22 -59 41 -20 19 -42
35 -49 35 -8 0 -20 7 -27 14 -6 8 -27 20 -46 26 -19 6 -34 16 -34 21 0 5 -11
9 -25 9 -14 0 -28 7 -31 15 -4 8 -17 15 -30 15 -17 0 -22 4 -18 15 4 9 0 15
-9 15 -9 0 -28 6 -44 14 -15 8 -47 20 -70 26 -33 8 -43 16 -43 31 0 38 -19 59
-53 59 -18 0 -39 4 -46 9 -9 6 -22 6 -34 0 -10 -6 -26 -7 -35 -3 -9 4 -22 6
-29 5 -6 -1 -14 8 -18 19 -5 15 -12 19 -26 15 -13 -5 -19 -2 -17 7 2 7 -2 12
-8 11 -7 -1 -10 6 -7 16 4 16 0 19 -26 17 -21 -1 -31 2 -31 12 0 7 5 10 10 7
6 -3 10 -2 10 3 0 10 -29 26 -42 24 -5 -1 -8 3 -8 8 0 6 -4 10 -10 10 -5 0
-10 -6 -10 -14z"/>
<path d="M2345 84 c-33 -7 -76 -17 -95 -21 -28 -5 -111 -43 -129 -59 -2 -2 61
-4 142 -4 l145 0 22 35 c18 29 20 38 10 50 -15 18 -17 18 -95 -1z"/>
</g>
</svg>
